<?xml version="1.0" encoding="utf-8"?>
<!-- Generator: Adobe Illustrator 16.0.0, SVG Export Plug-In . SVG Version: 6.00 Build 0)  -->
<!DOCTYPE svg PUBLIC "-//W3C//DTD SVG 1.1//EN" "http://www.w3.org/Graphics/SVG/1.1/DTD/svg11.dtd">
<svg version="1.1" id="Layer_1" xmlns="http://www.w3.org/2000/svg" xmlns:xlink="http://www.w3.org/1999/xlink" x="0px" y="0px"
	 width="1000px" height="16383px" viewBox="0 0 1000 16383" style="enable-background:new 0 0 1000 16383;" xml:space="preserve">
<image style="overflow:visible;" width="1693" height="2347" xlink:href="E:\Akashvaani\report_Yogeshwar Dutt-01.png"  transform="matrix(0.5901 0 0 0.5901 0.4668 0)">
</image>
<image style="overflow:visible;" width="595" height="842" xlink:href="new cover/2nd-page-new.png"  transform="matrix(1.6865 0 0 1.6865 -1.7227 1395.4963)">
</image>
<image style="overflow:visible;" width="1700" height="2200" xlink:href="E:\Akashvaani\report_Yogeshwar Dutt-03.png"  transform="matrix(0.5882 0 0 0.5882 -1.953125e-003 2826.7068)">
</image>
<image style="overflow:visible;" width="1700" height="2200" xlink:href="E:\Akashvaani\report_Yogeshwar Dutt-04.png"  transform="matrix(0.5882 0 0 0.5882 0 4132.4868)">
</image>
<image style="overflow:visible;" width="1700" height="2200" xlink:href="E:\Akashvaani\report_Yogeshwar Dutt-05.png"  transform="matrix(0.5882 0 0 0.5882 0 5442.4409)">
</image>
<image style="overflow:visible;" width="1700" height="2200" xlink:href="E:\Akashvaani\report_Yogeshwar Dutt-05.png"  transform="matrix(0.5871 0 0 0.5871 0.9302 6755.6411)">
</image>
<image style="overflow:visible;" width="1700" height="2200" xlink:href="E:\Akashvaani\report_Yogeshwar Dutt-06.png"  transform="matrix(0.5872 0 0 0.5872 0.8535 8062.0967)">
</image>
<image style="overflow:visible;" width="1700" height="2200" xlink:href="E:\Akashvaani\report_Yogeshwar Dutt-06.png"  transform="matrix(0.5882 0 0 0.5882 -4.882813e-004 9372.0049)">
</image>
<image style="overflow:visible;" width="1700" height="2200" xlink:href="E:\Akashvaani\report_Yogeshwar Dutt-07.png"  transform="matrix(0.5882 0 0 0.5882 0 10675.7314)">
</image>
<image style="overflow:visible;" width="1700" height="2200" xlink:href="E:\Akashvaani\report_Yogeshwar Dutt-08.png"  transform="matrix(0.5882 0 0 0.5882 0 11994.9414)">
</image>
<image style="overflow:visible;" width="1700" height="2200" xlink:href="E:\Akashvaani\report_Yogeshwar Dutt-09.png"  transform="matrix(0.5882 0 0 0.5882 0 13314.9414)">
</image>
<image style="overflow:visible;" width="1700" height="2200" xlink:href="E:\Akashvaani\report_Yogeshwar Dutt-12.png"  transform="matrix(0.5882 0 0 0.5882 0 14624.0586)">
</image>
</svg>
