<?xml version="1.0" encoding="utf-8"?>
<!-- Generator: Adobe Illustrator 16.0.0, SVG Export Plug-In . SVG Version: 6.00 Build 0)  -->
<!DOCTYPE svg PUBLIC "-//W3C//DTD SVG 1.1//EN" "http://www.w3.org/Graphics/SVG/1.1/DTD/svg11.dtd">
<svg version="1.1" xmlns="http://www.w3.org/2000/svg" xmlns:xlink="http://www.w3.org/1999/xlink" x="0px" y="0px" width="240px"
	 height="12000px" viewBox="0 0 240 12000" style="enable-background:new 0 0 240 12000;" xml:space="preserve">
<g id="Background_xA0_Image_1_">
	
		<image style="overflow:visible;" width="1000" height="50000" id="Background_xA0_Image" xlink:href="FCBBD20C.jpg"  transform="matrix(0.24 0 0 0.24 0 0)">
	</image>
</g>
<g id="report_x5F_Yogeshwar_Dutt-01_xA0_Image_1_">
	
		<image style="overflow:visible;" width="1000" height="1386" id="report_x5F_Yogeshwar_Dutt-01_xA0_Image" xlink:href="FCBBD20C.png"  transform="matrix(0.24 0 0 0.24 0 0)">
	</image>
</g>
<g id="_x32_nd-page-new_xA0_Image_1_">
	
		<image style="overflow:visible;" width="988" height="1410" id="_x32_nd-page-new_xA0_Image" xlink:href="FCBBD20B.png"  transform="matrix(0.24 0 0 0.24 1.2002 337.9199)">
	</image>
</g>
<g id="report_x5F_Yogeshwar_Dutt-03_xA0_Image_1_">
	
		<image style="overflow:visible;" width="1000" height="1294" id="report_x5F_Yogeshwar_Dutt-03_xA0_Image" xlink:href="FCBBD214.png"  transform="matrix(0.24 0 0 0.24 0 679.4404)">
	</image>
</g>
<g id="report_x5F_Yogeshwar_Dutt-04_xA0_Image_1_">
	
		<image style="overflow:visible;" width="1000" height="1294" id="report_x5F_Yogeshwar_Dutt-04_xA0_Image" xlink:href="FCBBD217.png"  transform="matrix(0.24 0 0 0.24 0 992.6396)">
	</image>
</g>
<g id="report_x5F_Yogeshwar_Dutt-05_xA0_Image_1_">
	
		<image style="overflow:visible;" width="1000" height="1294" id="report_x5F_Yogeshwar_Dutt-05_xA0_Image" xlink:href="FCBBD215.png"  transform="matrix(0.24 0 0 0.24 0 1306.0801)">
	</image>
</g>
<g id="report_x5F_Yogeshwar_Dutt-06_xA0_Image_1_">
	
		<image style="overflow:visible;" width="1000" height="1294" id="report_x5F_Yogeshwar_Dutt-06_xA0_Image" xlink:href="FCBBD21B.png"  transform="matrix(0.24 0 0 0.24 0 1619.2803)">
	</image>
</g>
<g id="report_x5F_Yogeshwar_Dutt-07_xA0_Image_1_">
	
		<image style="overflow:visible;" width="1000" height="1294" id="report_x5F_Yogeshwar_Dutt-07_xA0_Image" xlink:href="FCBBD21C.png"  transform="matrix(0.24 0 0 0.24 0 1932.7197)">
	</image>
</g>
<g id="report_x5F_Yogeshwar_Dutt-08_xA0_Image_1_">
	
		<image style="overflow:visible;" width="1000" height="1294" id="report_x5F_Yogeshwar_Dutt-08_xA0_Image" xlink:href="FCBBD21F.png"  transform="matrix(0.24 0 0 0.24 0 2246.4004)">
	</image>
</g>
<g id="report_x5F_Yogeshwar_Dutt-09_xA0_Image_1_">
	
		<image style="overflow:visible;" width="1000" height="1294" id="report_x5F_Yogeshwar_Dutt-09_xA0_Image" xlink:href="87255C1B.png"  transform="matrix(0.24 0 0 0.24 0 2559.8398)">
	</image>
</g>
<g id="report_x5F_Yogeshwar_Dutt-10_xA0_Image_1_">
	
		<image style="overflow:visible;" width="1000" height="1294" id="report_x5F_Yogeshwar_Dutt-10_xA0_Image" xlink:href="87255C19.png"  transform="matrix(0.24 0 0 0.24 0 2872.5596)">
	</image>
</g>
<g id="report_x5F_Yogeshwar_Dutt-11_xA0_Image_1_">
	
		<image style="overflow:visible;" width="1000" height="1294" id="report_x5F_Yogeshwar_Dutt-11_xA0_Image" xlink:href="87255C1F.png"  transform="matrix(0.24 0 0 0.24 0 3185.7598)">
	</image>
</g>
<g id="report_x5F_Yogeshwar_Dutt-12_xA0_Image_1_">
	
		<image style="overflow:visible;" width="999" height="1294" id="report_x5F_Yogeshwar_Dutt-12_xA0_Image" xlink:href="87255C1A.png"  transform="matrix(0.24 0 0 0.24 0 3498.96)">
	</image>
</g>
<g id="report_x5F_Yogeshwar_Dutt-13_xA0_Image_1_">
	
		<image style="overflow:visible;" width="1000" height="1294" id="report_x5F_Yogeshwar_Dutt-13_xA0_Image" xlink:href="87255C05.png"  transform="matrix(0.24 0 0 0.24 0 3812.6396)">
	</image>
</g>
<g id="report_x5F_Yogeshwar_Dutt-14_xA0_Image_1_">
	
		<image style="overflow:visible;" width="999" height="1294" id="report_x5F_Yogeshwar_Dutt-14_xA0_Image" xlink:href="87255C06.png"  transform="matrix(0.24 0 0 0.24 0 4127.04)">
	</image>
</g>
<g id="report_x5F_Yogeshwar_Dutt-15_xA0_Image_1_">
	
		<image style="overflow:visible;" width="1000" height="1294" id="report_x5F_Yogeshwar_Dutt-15_xA0_Image" xlink:href="87255C07.png"  transform="matrix(0.24 0 0 0.24 0 4441.9199)">
	</image>
</g>
<g id="report_x5F_Yogeshwar_Dutt-16_xA0_Image_1_">
	
		<image style="overflow:visible;" width="999" height="1294" id="report_x5F_Yogeshwar_Dutt-16_xA0_Image" xlink:href="87255C09.png"  transform="matrix(0.24 0 0 0.24 0 4757.04)">
	</image>
</g>
<g id="report_x5F_Yogeshwar_Dutt-17_xA0_Image_1_">
	
		<image style="overflow:visible;" width="999" height="1294" id="report_x5F_Yogeshwar_Dutt-17_xA0_Image" xlink:href="87255C0B.png"  transform="matrix(0.24 0 0 0.24 0 5071.4395)">
	</image>
</g>
<g id="report_x5F_Yogeshwar_Dutt-18_xA0_Image_1_">
	
		<image style="overflow:visible;" width="999" height="1294" id="report_x5F_Yogeshwar_Dutt-18_xA0_Image" xlink:href="87255C0E.png"  transform="matrix(0.24 0 0 0.24 0 5388)">
	</image>
</g>
<g id="report_x5F_Yogeshwar_Dutt-19_xA0_Image_1_">
	
		<image style="overflow:visible;" width="999" height="1294" id="report_x5F_Yogeshwar_Dutt-19_xA0_Image" xlink:href="87255C22.png"  transform="matrix(0.24 0 0 0.24 0 5703.3594)">
	</image>
</g>
<g id="report_x5F_Yogeshwar_Dutt-20_xA0_Image_1_">
	
		<image style="overflow:visible;" width="1000" height="1294" id="report_x5F_Yogeshwar_Dutt-20_xA0_Image" xlink:href="87255C21.png"  transform="matrix(0.24 0 0 0.24 0 6018.4805)">
	</image>
</g>
<g id="report_x5F_Yogeshwar_Dutt-21_xA0_Image_1_">
	
		<image style="overflow:visible;" width="999" height="1294" id="report_x5F_Yogeshwar_Dutt-21_xA0_Image" xlink:href="87255C2E.png"  transform="matrix(0.24 0 0 0.24 0 6334.7998)">
	</image>
</g>
<g id="report_x5F_Yogeshwar_Dutt-22_xA0_Image_1_">
	
		<image style="overflow:visible;" width="999" height="1294" id="report_x5F_Yogeshwar_Dutt-22_xA0_Image" xlink:href="87255C20.png"  transform="matrix(0.24 0 0 0.24 0 6650.1602)">
	</image>
</g>
<g id="report_x5F_Yogeshwar_Dutt-23_xA0_Image_1_">
	
		<image style="overflow:visible;" width="999" height="1294" id="report_x5F_Yogeshwar_Dutt-23_xA0_Image" xlink:href="87255C23.png"  transform="matrix(0.24 0 0 0.24 0 6965.5195)">
	</image>
</g>
<g id="report_x5F_Yogeshwar_Dutt-24_xA0_Image_1_">
	
		<image style="overflow:visible;" width="999" height="1294" id="report_x5F_Yogeshwar_Dutt-24_xA0_Image" xlink:href="87255C27.png"  transform="matrix(0.24 0 0 0.24 0 7282.7998)">
	</image>
</g>
<g id="report_x5F_Yogeshwar_Dutt-25_xA0_Image_1_">
	
		<image style="overflow:visible;" width="1000" height="1294" id="report_x5F_Yogeshwar_Dutt-25_xA0_Image" xlink:href="87255C26.png"  transform="matrix(0.24 0 0 0.24 0 7599.8398)">
	</image>
</g>
<g id="report_x5F_Yogeshwar_Dutt-26_xA0_Image_1_">
	
		<image style="overflow:visible;" width="1000" height="1400" id="report_x5F_Yogeshwar_Dutt-26_xA0_Image" xlink:href="87255C1D.png"  transform="matrix(0.24 0 0 0.24 0 7909.6797)">
	</image>
</g>
</svg>
