<?xml version="1.0" encoding="utf-8"?>
<!-- Generator: Adobe Illustrator 16.0.0, SVG Export Plug-In . SVG Version: 6.00 Build 0)  -->
<!DOCTYPE svg PUBLIC "-//W3C//DTD SVG 1.1//EN" "http://www.w3.org/Graphics/SVG/1.1/DTD/svg11.dtd">
<svg version="1.1" id="Layer_1" xmlns="http://www.w3.org/2000/svg" xmlns:xlink="http://www.w3.org/1999/xlink" x="0px" y="0px"
	 width="400px" height="370px" viewBox="0 0 400 370" style="enable-background:new 0 0 400 370;" xml:space="preserve">
<style type="text/css">
<![CDATA[
	.st0{fill:#F7AC35;stroke:#010101;stroke-width:0.8704;stroke-miterlimit:10;}
	.st1{fill:#2799CC;stroke:#010101;stroke-width:0.825;stroke-miterlimit:10;}
	.st2{fill:#E0E3E8;}
	.st3{fill:none;stroke:#010101;stroke-width:3.272;stroke-miterlimit:10;}
	.st4{fill:#E6E7E8;}
	.st5{fill:none;stroke:#808285;stroke-width:1.6092;stroke-miterlimit:10;}
	.st6{fill:#808285;}
	.st7{fill:#DDE5DF;stroke:#414042;stroke-width:1.1214;stroke-miterlimit:10;}
	.st8{fill:none;stroke:#808285;stroke-width:1.636;stroke-miterlimit:10;}
	.st9{fill:#58595B;}
	.st10{fill:#FFFFFF;stroke:#808285;stroke-width:0.2682;stroke-miterlimit:10;}
	.st11{fill:#F1F2F2;stroke:#808285;stroke-width:0.3647;stroke-miterlimit:10;}
	.st12{fill:#F2F2F2;stroke:#010101;stroke-width:0.173;stroke-miterlimit:10;}
	.st13{fill:#F1F2F2;}
	.st14{fill:#F2F2F2;}
	.st15{fill:#FFFFFF;stroke:#808285;stroke-width:0.831;stroke-miterlimit:10;}
	.st16{fill:#FFFFFF;stroke:#000000;stroke-width:0.8024;stroke-miterlimit:10;}
	.st17{fill:none;stroke:#E7E7E7;stroke-width:3.3643;stroke-miterlimit:10;}
	.st18{fill:#FDB716;}
	.st19{fill:#FEE79D;}
	.st20{fill:#FFFFFF;}
	.st21{fill:#E6E7E8;stroke:#414042;stroke-width:0.8704;stroke-miterlimit:10;}
	.st22{fill:#52C5D2;stroke:#010101;stroke-width:2.6946;stroke-miterlimit:10;}
	.st23{fill:#F1F2F2;stroke:#000000;stroke-width:0.484;stroke-miterlimit:10;}
	.st24{fill:#FFFFFF;stroke:#010101;stroke-width:0.8704;stroke-miterlimit:10;}
	.st25{fill:#D2D3D4;stroke:#010101;stroke-width:0.173;stroke-miterlimit:10;}
	.st26{fill:#010101;}
	.st27{fill:#D1D3D4;}
	.st28{fill:#52C5D2;stroke:#010101;stroke-width:0.8704;stroke-miterlimit:10;}
	.st29{fill:#52C5D2;stroke:#010101;stroke-width:3.0413;stroke-miterlimit:10;}
	.st30{fill:none;stroke:#010101;stroke-width:3.3643;stroke-miterlimit:10;}
	.st31{fill:#A7A9AC;}
]]>
</style>
<path class="st19" d="M42.134,184.489c-2.386-2.387-16.947-17.948-20.884-27.972c-12.054-31.029,8.109-86.816,24.338-96.364
	c16.111-9.546,80.911-30.523,93.322-33.269c12.291-2.864,38.724-3.818,43.497,0c4.773,3.82,16.298,8.545,54.248,0.908
	c37.947-7.638,84.327,3.498,106.166,27.246c21.839,23.747,43.445,57.656,40.582,86.059c-2.861,28.522-10.502,30.432-5.729,48.451
	c4.772,18.021-2.231,18.332,4.452,44.944c6.68,26.612,39.857,112.058-69.338,113.967c-109.193,1.911-157.645-8.593-213.612-9.071
	c-55.969-0.476-101.556-35.562-93.083-84.966c8.593-49.405,22.794-21.839,54.06-6.684c31.386,15.155,2.744-21.123-5.012-29.716
	C39.987,201.196,46.789,189.024,42.134,184.489z"/>
<g>
	<path class="st14" d="M24.197,346.483c0-0.53,42.297-3.702,44.697-3.174c2.399,0.53,8.299,2.219,34.798,5.392
		c26.497,3.174,58.595,0.213,60.994,0.213c2.401,0,62.794,0.107,77.092-2.222c14.3-2.324,5.302-8.245,54.297-3.383
		c49,4.864,68.897,0.741,80.896,2.538c12,1.797,28.296,5.075,11.297,15.119c-16.997,10.046-18.299,7.824-27.995,7.824
		c-9.699,0-69.597-1.059-89.694-2.642c-20.1-1.587-100.491,0-116.789,0c-16.3,0-45.297,3.17-60.496-0.531
		c-15.198-3.699-45.296-1.056-62.995-3.169C12.6,360.333-5.399,370.377,5.1,358.746c10.5-11.63,18.999-13.744,18.999-13.744"/>
	<line class="st3" x1="30.298" y1="353.988" x2="126.489" y2="353.988"/>
	<line class="st3" x1="143.289" y1="353.988" x2="164.686" y2="353.988"/>
	<line class="st3" x1="175.086" y1="353.988" x2="320.673" y2="353.988"/>
	<line class="st3" x1="354.871" y1="353.988" x2="382.669" y2="353.988"/>
</g>
<path class="st22" d="M232.911,337.979"/>
<path class="st22" d="M194.108,337.134"/>
<g>
	<polygon class="st12" points="146.762,8.622 88.512,22.658 103.25,28.623 104.477,40.554 	"/>
	<polygon class="st25" points="103.25,28.623 104.477,40.554 146.762,8.622 	"/>
	<polygon class="st12" points="110.444,31.606 104.477,40.554 146.762,8.622 	"/>
	<polygon class="st12" points="146.762,8.622 110.619,31.606 125.357,37.572 	"/>
</g>
<g>
	<path class="st23" d="M361.327,155.09c3.574,0,10.167,0,13.612,0c6.407,3.265,16.253,16.418,18.407,23.955
		c4.082,14.277-1.256,17.719-7.548,21.263c-10.507,5.92-31.454,3.778-36.874-0.05c-10.749-7.58-8.313-15.324-6.163-21.213
		C345.443,171.694,354.753,157.995,361.327,155.09z"/>
	<path class="st23" d="M354.565,148.112c0,0,1.183,5.001,6.446,6.978h13.973c0,0,5.266-2.501,6.125-6.978
		C381.109,148.112,370.525,144.361,354.565,148.112z"/>
	<path class="st23" d="M358.916,143.272c0,0,10.428-3.993,17.842,0l-5.266,11.817h-7.202L358.916,143.272z"/>
	<g>
		<g>
			<path class="st9" d="M376.171,154.506c-5.556,0-11.11,0-16.666,0c-0.753,0-0.753,1.167,0,1.167c5.556,0,11.11,0,16.666,0
				C376.924,155.673,376.924,154.506,376.171,154.506L376.171,154.506z"/>
		</g>
	</g>
	<g>
		<g>
			<path class="st9" d="M353.067,170.901c0.993-5.646,3.595-11.859,8.386-15.248c0.631-0.447,0.027-1.497-0.611-1.045
				c-5.059,3.579-7.89,9.992-8.94,15.972C351.767,171.343,352.933,171.669,353.067,170.901L353.067,170.901z"/>
		</g>
	</g>
	<g>
		<g>
			<path class="st9" d="M358.827,174.772c-0.431-5.475-1.427-15.014,2.748-19.213c0.551-0.554-0.305-1.409-0.855-0.855
				c-4.493,4.521-3.559,14.269-3.102,20.069C357.679,175.544,358.889,175.55,358.827,174.772L358.827,174.772z"/>
		</g>
	</g>
	<g>
		<g>
			<g>
				<path class="st6" d="M360.939,174.524c4.599,0,9.196,0,13.795,0c1.561,0,1.561-2.42,0-2.42c-4.599,0-9.196,0-13.795,0
					C359.379,172.104,359.379,174.524,360.939,174.524L360.939,174.524z"/>
			</g>
		</g>
		<g>
			<g>
				<path class="st6" d="M360.939,179.28c4.599,0,9.196,0,13.795,0c1.561,0,1.561-2.42,0-2.42c-4.599,0-9.196,0-13.795,0
					C359.379,176.86,359.379,179.28,360.939,179.28L360.939,179.28z"/>
			</g>
		</g>
		<g>
			<g>
				<path class="st6" d="M361.356,174.524c2.858-0.365,6.765,0.139,7.778,3.283c1.356,4.212-4.168,5.059-7.16,5.068
					c-1.561,0.005-1.561,2.425,0,2.42c4.377-0.014,10.595-1.673,9.674-7.237c-0.801-4.837-5.936-6.51-10.292-5.954
					C359.83,172.299,359.812,174.721,361.356,174.524L361.356,174.524z"/>
			</g>
		</g>
		<g>
			<g>
				<path class="st6" d="M372.152,193.92c-3.063-3.5-6.124-7.001-9.187-10.501c-1.029-1.177-2.733,0.542-1.711,1.711
					c3.063,3.5,6.124,7.001,9.187,10.501C371.471,196.808,373.175,195.089,372.152,193.92L372.152,193.92z"/>
			</g>
		</g>
	</g>
</g>
<polygon class="st11" points="373.229,302.755 373.229,306.626 378.982,309.975 373.229,313.112 373.229,316.144 314.656,316.144 
	314.656,302.755 "/>
<rect x="324.896" y="305.864" class="st31" width="46.798" height="1.334"/>
<rect x="324.896" y="308.237" class="st31" width="46.798" height="0.74"/>
<rect x="324.896" y="310.164" class="st31" width="46.798" height="0.74"/>
<rect x="324.896" y="311.868" class="st31" width="46.798" height="0.741"/>
<polygon class="st31" points="325.625,284.975 325.625,288.948 319.661,292.296 325.625,295.54 325.625,298.781 386.185,298.781 
	386.185,284.975 "/>
<rect x="316.309" y="305.816" class="st31" width="6.706" height="6.841"/>
<rect x="329.329" y="288.505" class="st13" width="46.796" height="1.333"/>
<rect x="329.329" y="290.878" class="st13" width="46.796" height="0.739"/>
<rect x="329.329" y="292.805" class="st13" width="46.796" height="0.739"/>
<rect x="329.329" y="294.51" class="st13" width="46.796" height="0.74"/>
<rect x="378.047" y="288.456" class="st13" width="6.703" height="6.842"/>
<path class="st15" d="M329.59,326.317c0.729,0.806,1.038,3.354,0.071,4.548c0,0-2.849,3.933-5.327,4.294
	c-1.206,0.177-5.407,0.344-14.398-5.419c-4.298-2.756-11.197-9.876-13.965-14.883c-1.243-2.252-3.457-6.436-3.723-10.563
	c-0.237-3.721,4.165-6.338,4.165-6.338c1.187-0.713,2.757-1.223,3.69-0.621c0,0,5.72,3.56,5.353,7.99
	c-0.123,1.492-1.424,2.349-2.919,4.275c-1.928,2.489,9.017,14.156,14.241,15.546c1.801,0.48,3.306-3.146,5.143-3.168
	C325.388,321.541,329.59,326.317,329.59,326.317z"/>
<g>
	<g>
		<g>
			<g>
				<g>
					<polygon class="st6" points="162.762,16.376 162.561,14.842 158.351,15.425 158.589,16.954 					"/>
					<polygon class="st6" points="168.994,15.673 168.852,14.132 164.623,14.568 164.805,16.104 					"/>
					<polygon class="st6" points="175.246,15.216 175.168,13.671 170.924,13.949 171.045,15.491 					"/>
					<polygon class="st6" points="181.51,15.037 181.503,13.489 177.25,13.593 177.305,15.139 					"/>
					<path class="st6" d="M187.772,15.171l0.067-1.545c0,0-1.062-0.081-2.126-0.078c-1.064-0.015-2.128-0.03-2.128-0.03
						l-0.017,1.547c0,0,1.051,0.015,2.103,0.03C186.723,15.091,187.772,15.171,187.772,15.171z"/>
					<path class="st6" d="M194.02,15.607l0.144-1.541c0,0-1.059-0.103-2.119-0.206c-1.063-0.06-2.125-0.12-2.125-0.12l-0.092,1.544
						c0,0,1.049,0.059,2.099,0.118C192.974,15.505,194.02,15.607,194.02,15.607z"/>
					<path class="st6" d="M200.236,16.344l0.221-1.531c0,0-1.054-0.146-2.107-0.293c-1.052-0.164-2.113-0.251-2.113-0.251
						l-0.169,1.538c0,0,1.048,0.086,2.087,0.248C199.195,16.199,200.236,16.344,200.236,16.344z"/>
				</g>
			</g>
			<g>
				<g>
					<polygon class="st6" points="206.416,17.378 206.71,15.859 202.521,15.103 202.275,16.63 					"/>
					<polygon class="st6" points="212.541,18.699 212.903,17.195 208.75,16.273 208.433,17.787 					"/>
					<path class="st6" d="M218.599,20.313l0.425-1.488c0,0-1.015-0.318-2.048-0.571c-1.029-0.267-2.058-0.535-2.058-0.535
						l-0.385,1.499c0,0,1.019,0.265,2.037,0.529C217.593,19.997,218.599,20.312,218.599,20.313z"/>
					<path class="st6" d="M224.594,22.157l0.48-1.47c0,0-1.009-0.333-2.018-0.665c-1.019-0.303-2.038-0.605-2.038-0.605
						l-0.443,1.482c0,0,1.009,0.299,2.019,0.599C223.594,21.828,224.594,22.157,224.594,22.157z"/>
					<path class="st6" d="M230.526,24.206l0.527-1.454c0,0-0.998-0.363-1.996-0.725c-0.995-0.37-2.01-0.687-2.01-0.686l-0.497,1.465
						c0,0,1.006,0.313,1.994,0.681C229.536,23.846,230.526,24.206,230.526,24.206z"/>
					<path class="st6" d="M236.4,26.431l0.567-1.439c0,0-0.988-0.388-1.976-0.775c-0.984-0.396-1.983-0.756-1.983-0.756
						l-0.542,1.449c0,0,0.992,0.357,1.971,0.751C235.419,26.046,236.4,26.431,236.4,26.431z"/>
					<polygon class="st6" points="242.217,28.806 242.818,27.38 238.901,25.75 238.321,27.185 					"/>
				</g>
			</g>
		</g>
	</g>
</g>
<g>
	<g>
		<g>
			<g>
				<g>
					<polygon class="st6" points="372.633,214.688 374.175,214.56 373.806,211.143 372.273,211.359 					"/>
					<path class="st6" d="M372.837,219.67l1.547-0.003c0,0,0.004-0.214,0.01-0.536c0.002-0.321-0.027-0.75-0.042-1.179
						c-0.037-0.858-0.074-1.716-0.074-1.716l-1.544,0.086c0,0,0.035,0.837,0.071,1.673c0.015,0.419,0.044,0.837,0.042,1.151
						C372.841,219.46,372.837,219.67,372.837,219.67z"/>
					<path class="st6" d="M372.641,224.657l1.543,0.114c0,0,0.066-0.855,0.134-1.71c0.017-0.857,0.034-1.716,0.034-1.716
						l-1.547-0.036c0,0-0.017,0.838-0.033,1.676C372.706,223.821,372.641,224.657,372.641,224.657z"/>
					<path class="st6" d="M372.098,229.624l1.53,0.221c0,0,0.116-0.849,0.231-1.697c0.132-0.847,0.191-1.702,0.192-1.702
						l-1.54-0.151c0,0-0.059,0.837-0.188,1.667C372.21,228.792,372.098,229.624,372.098,229.624z"/>
					<polygon class="st6" points="371.231,234.549 372.745,234.868 373.389,231.504 371.862,231.249 					"/>
					<path class="st6" d="M370.054,239.413l1.491,0.41c0,0,0.067-0.203,0.139-0.516c0.077-0.312,0.179-0.728,0.281-1.143
						c0.204-0.831,0.408-1.662,0.408-1.662l-1.507-0.351c0,0-0.2,0.815-0.401,1.632c-0.1,0.408-0.2,0.816-0.275,1.122
						C370.119,239.214,370.054,239.413,370.054,239.413z"/>
					<path class="st6" d="M368.579,244.198l1.467,0.493c0,0,0.303-0.801,0.531-1.625c0.244-0.819,0.489-1.639,0.489-1.639
						l-1.483-0.438c0,0-0.241,0.806-0.481,1.611C368.877,243.411,368.579,244.198,368.579,244.198z"/>
				</g>
			</g>
			<g>
				<g>
					<path class="st6" d="M366.853,248.904l1.439,0.567c0,0,0.316-0.794,0.632-1.588c0.283-0.807,0.566-1.613,0.566-1.613
						l-1.457-0.518c0,0-0.279,0.794-0.558,1.588C367.164,248.122,366.853,248.904,366.853,248.904z"/>
					<path class="st6" d="M364.896,253.52l1.409,0.638c0,0,0.354-0.778,0.708-1.556c0.349-0.779,0.654-1.578,0.653-1.578
						l-1.429-0.592c0,0-0.301,0.786-0.645,1.556C365.244,252.753,364.896,253.52,364.896,253.52z"/>
					<path class="st6" d="M362.723,258.039l1.378,0.702c0,0,0.387-0.762,0.773-1.523c0.4-0.755,0.738-1.54,0.738-1.54l-1.399-0.659
						c0,0-0.333,0.774-0.729,1.519C363.104,257.288,362.723,258.039,362.723,258.039z"/>
					<path class="st6" d="M360.349,262.461l1.347,0.761c0,0,0.418-0.744,0.835-1.489c0.208-0.372,0.416-0.745,0.572-1.024
						c0.145-0.285,0.241-0.476,0.241-0.476l-1.368-0.722c0,0-0.095,0.188-0.238,0.469c-0.154,0.276-0.359,0.644-0.565,1.012
						C360.761,261.726,360.349,262.461,360.349,262.461z"/>
					<path class="st6" d="M357.789,266.778l1.314,0.816c0,0,0.446-0.728,0.893-1.455c0.449-0.726,0.883-1.461,0.883-1.46
						l-1.336-0.78c0,0-0.429,0.726-0.872,1.442C358.23,266.061,357.789,266.778,357.789,266.778z"/>
					<polygon class="st6" points="355.056,270.991 356.336,271.858 358.229,269.02 356.926,268.186 					"/>
					<polygon class="st6" points="352.16,275.094 353.407,276.009 355.408,273.246 354.139,272.362 					"/>
				</g>
			</g>
		</g>
	</g>
</g>
<g>
	<g>
		<g>
			<g>
				<g>
					<polygon class="st6" points="338.832,69.343 339.861,68.188 337.186,65.904 336.214,67.108 					"/>
					<path class="st6" d="M342.538,72.89l1.104-1.083c0,0-0.596-0.645-1.245-1.239c-0.637-0.605-1.273-1.211-1.273-1.211
						l-1.056,1.131c0,0,0.624,0.593,1.248,1.187C341.953,72.257,342.538,72.891,342.538,72.89z"/>
					<path class="st6" d="M346.004,76.677l1.171-1.011c0,0-0.572-0.666-1.144-1.333c-0.603-0.639-1.205-1.278-1.205-1.278
						l-1.128,1.059c0,0,0.591,0.627,1.183,1.254C345.442,76.022,346.004,76.677,346.004,76.677z"/>
					<path class="st6" d="M349.244,80.664l1.229-0.94c0,0-0.538-0.693-1.077-1.386c-0.526-0.703-1.102-1.365-1.102-1.366
						l-1.191,0.987c0,0,0.566,0.651,1.083,1.342C348.715,79.982,349.244,80.664,349.244,80.664z"/>
					<polygon class="st6" points="352.256,84.827 353.536,83.958 351.518,81.086 350.271,82.003 					"/>
					<polygon class="st6" points="355.037,89.152 356.362,88.354 354.483,85.391 353.188,86.237 					"/>
					<path class="st6" d="M357.559,93.632l1.366-0.726c-0.001,0-0.395-0.784-0.842-1.538c-0.435-0.762-0.87-1.523-0.87-1.523
						l-1.339,0.774c0,0,0.428,0.75,0.856,1.499C357.171,92.861,357.559,93.633,357.559,93.632z"/>
				</g>
			</g>
			<g>
				<g>
					<path class="st6" d="M359.846,98.24l1.402-0.654c0,0-0.091-0.2-0.227-0.5c-0.136-0.299-0.312-0.701-0.519-1.088
						c-0.398-0.781-0.797-1.562-0.797-1.562l-1.379,0.703c0,0,0.393,0.769,0.786,1.538c0.203,0.381,0.376,0.777,0.51,1.072
						S359.846,98.24,359.846,98.24z"/>
					<path class="st6" d="M361.893,102.958l1.435-0.58c0,0-0.324-0.815-0.648-1.63c-0.361-0.799-0.723-1.598-0.723-1.598
						l-1.413,0.629c0,0,0.356,0.787,0.712,1.574C361.574,102.155,361.893,102.958,361.893,102.958z"/>
					<path class="st6" d="M363.694,107.774l1.462-0.505c0,0-0.284-0.83-0.569-1.659c-0.134-0.418-0.305-0.822-0.425-1.128
						c-0.121-0.306-0.202-0.509-0.202-0.509l-1.443,0.556c0,0,0.079,0.2,0.199,0.501c0.118,0.301,0.286,0.699,0.418,1.111
						C363.414,106.957,363.694,107.774,363.694,107.774z"/>
					<path class="st6" d="M365.245,112.677l1.486-0.429c0,0-0.244-0.842-0.488-1.684c-0.227-0.848-0.53-1.671-0.53-1.671
						l-1.471,0.48c0.001,0,0.299,0.811,0.522,1.645C365.005,111.848,365.245,112.677,365.245,112.677z"/>
					<path class="st6" d="M366.54,117.654l1.507-0.351c0,0-0.202-0.854-0.404-1.707c-0.103-0.427-0.204-0.853-0.281-1.173
						c-0.091-0.316-0.152-0.526-0.152-0.526l-1.493,0.403c0,0,0.06,0.207,0.15,0.518c0.075,0.315,0.175,0.735,0.275,1.155
						C366.341,116.813,366.54,117.654,366.54,117.654z"/>
					<path class="st6" d="M367.573,122.691l1.523-0.271c0,0-0.159-0.862-0.318-1.725c-0.08-0.431-0.159-0.862-0.22-1.186
						c-0.055-0.324-0.115-0.535-0.115-0.535l-1.513,0.324c0,0,0.06,0.208,0.114,0.527c0.059,0.318,0.137,0.743,0.215,1.167
						C367.417,121.842,367.573,122.691,367.573,122.691z"/>
					<polygon class="st6" points="368.34,127.774 369.876,127.584 369.408,124.108 367.881,124.353 					"/>
				</g>
			</g>
		</g>
	</g>
</g>
<g>
	<g>
		<path class="st4" d="M300.256,12.105l-9.713-9.042c-1.146-1.066-2.925-1.066-4.071,0l-9.711,9.042H300.256z"/>
	</g>
	<polygon class="st4" points="263.469,35.787 263.352,35.698 263.352,24.588 256.789,30.697 256.789,30.698 	"/>
	<polygon class="st4" points="313.661,24.588 313.661,35.698 313.437,35.87 313.438,35.87 320.225,30.698 320.225,30.697 	"/>
	<polygon class="st4" points="263.352,24.588 276.761,12.105 300.256,12.105 313.661,24.588 313.661,35.698 297.257,48.198 
		279.758,48.198 263.352,35.698 	"/>
	<path class="st10" d="M311.396,30.152c0,12.64-10.248,22.887-22.891,22.887c-12.638,0-22.885-10.247-22.885-22.887
		c0-12.642,10.247-22.889,22.885-22.889C301.148,7.263,311.396,17.51,311.396,30.152z"/>
	<polygon class="st27" points="320.225,65.696 320.225,30.698 297.257,48.198 	"/>
	<polygon class="st27" points="256.789,65.696 256.789,30.698 279.758,48.198 	"/>
	<polygon class="st4" points="256.789,65.696 256.931,65.696 319.725,65.696 320.084,65.696 320.225,65.696 297.257,48.198 
		279.758,48.198 	"/>
	<path class="st5" d="M280.226,26.304c0,0,0,5.222,0,6.974c0.002,2.716,2.909,7.442,8.023,7.442h-0.02
		c5.747,0,8.022-4.726,8.026-7.442c0-1.752,0-6.974,0-6.974"/>
	<path class="st6" d="M293.761,31.422c0,3.062-2.398,5.543-5.361,5.543h-0.337c-2.963,0-5.366-2.481-5.366-5.543v-10.95
		c0-3.062,2.403-5.543,5.366-5.543h0.337c2.963,0,5.361,2.481,5.361,5.543V31.422z"/>
	<polyline class="st8" points="288.249,40.72 288.249,45.816 293.06,45.816 283.36,45.816 	"/>
</g>
<g>
	<path class="st29" d="M238.477,292.854"/>
	<path class="st29" d="M194.681,293.928"/>
	<path class="st21" d="M315.937,128.483l1.242,154.065C317.179,282.549,337.266,148.058,315.937,128.483z"/>
	<path class="st7" d="M317.196,282.015c0,4.978-4.706,9.038-10.566,9.038l-130.279-76.567c-5.114-3.7-9.935-5.567-9.935-10.545
		v-92.376c0-4.976,4.703-9.035,10.563-9.035l129.679,21.817c5.858,0,10.564,4.061,10.564,9.037L317.196,282.015z"/>
	<polygon class="st20" points="171.746,116.494 311.893,149.75 311.008,279.917 171.746,204.082 	"/>
	<ellipse class="st18" cx="188.042" cy="133.407" rx="8.479" ry="11.563"/>
	<polygon class="st2" points="207.038,147.826 304.402,174.23 304.402,249.664 207.168,203.827 	"/>
	<line class="st17" x1="175.326" y1="166.566" x2="196.614" y2="174.23"/>
	<line class="st30" x1="175.326" y1="154.211" x2="197.137" y2="159.577"/>
	<line class="st17" x1="175.326" y1="177.838" x2="196.614" y2="187.286"/>
	<line class="st17" x1="175.326" y1="186.625" x2="197.137" y2="198.312"/>
</g>
<g>
	<g>
		<path class="st28" d="M123.705,315.58l-30.284,0.804l-8.083-34.004c-0.323-31.864,31.146-42.977,31.146-42.977l0.326-15.528
			l14.01,0.668"/>
		<path class="st28" d="M130.605,223.875l0.321,15.528c0,0,31.363,11.112,31.148,42.977l-7.976,33.333h-30.502"/>
	</g>
	<polygon class="st16" points="110.528,274.004 113.033,317.837 134.044,317.837 134.044,274.004 	"/>
	<path class="st1" d="M107.344,276.78c0,0,11.656-16.169,16.971-15.985c4.797,0.092,13.276,15.169,13.276,15.169L107.344,276.78z"/>
	<path class="st20" d="M117.157,224.507l-0.346,15.964c0,0,7.391-2.814,13.855,0l-0.407-15.49
		C130.152,224.98,124.138,225.817,117.157,224.507z"/>
	<path class="st24" d="M91.523,161.468c0,0-1.585,34.006-0.34,43.72c1.242,9.722,15.589,27.23,34.682,26.549
		c19.093-0.677,35.247-15.585,35.247-29.144c0-1.805,6.304-1.941,6.314-3.994c0.014-2.898-6.257-7.803-6.23-10.837
		c0.1-10.966,0.259-21.437,0.259-21.437s-14.915-1.581-15.594-19.769C145.978,146.556,125.188,167.909,91.523,161.468z"/>
	<path class="st0" d="M130.73,159.907c21.112,2.322,18.65,6.518,30.133,7.095c6.955-0.369,9.846-7.714,8.061-13.03
		c-2.564-7.625-5.692-7.123-10.907-10.154c0,0,15.252-5.66,12.249-24.151c0,0,0.691,8.67-48.42,11.209
		c0,0-29.814-0.923-27.736,16.293c0,0-9.818,2.313-8.896,9.129c0.809,6.356,0.873,32.126,5.492,42.874
		C93.208,207.551,98.142,159.1,130.73,159.907z"/>
	<g>
		<path class="st26" d="M129.066,176.917c0,0,0.698-0.666,1.955-1.308c0.626-0.322,1.384-0.652,2.234-0.897
			c0.422-0.134,0.87-0.239,1.33-0.323c0.455-0.107,0.937-0.132,1.41-0.189c0.478-0.028,0.962-0.029,1.435-0.016
			c0.477,0.049,0.943,0.08,1.39,0.178c0.445,0.115,0.877,0.188,1.267,0.355c0.39,0.165,0.757,0.3,1.071,0.49
			c0.315,0.188,0.59,0.376,0.828,0.543c0.238,0.167,0.407,0.375,0.558,0.516c0.292,0.3,0.438,0.479,0.438,0.479
			s-0.24-0.058-0.626-0.172c-0.195-0.053-0.415-0.14-0.679-0.203c-0.271-0.051-0.569-0.108-0.88-0.188
			c-0.315-0.07-0.676-0.078-1.032-0.141c-0.356-0.064-0.754-0.043-1.144-0.086c-0.395-0.027-0.812,0.005-1.225-0.016
			c-0.419,0.028-0.845,0.031-1.271,0.065c-1.709,0.125-3.441,0.403-4.782,0.588C130.013,176.806,129.066,176.917,129.066,176.917z"
			/>
	</g>
	<g>
		<path class="st26" d="M152.824,176.917c0,0,0.349-0.552,1.116-1.116c0.383-0.277,0.86-0.575,1.427-0.787
			c0.558-0.235,1.208-0.375,1.873-0.419c0.336,0.018,0.672-0.02,1.002,0.063c0.331,0.049,0.648,0.132,0.943,0.259
			c0.147,0.059,0.295,0.108,0.432,0.174c0.128,0.083,0.253,0.164,0.375,0.243c0.248,0.146,0.458,0.314,0.621,0.504
			c0.363,0.334,0.569,0.686,0.696,0.938c0.131,0.247,0.19,0.39,0.19,0.39s-0.153-0.068-0.392-0.191
			c-0.118-0.063-0.262-0.135-0.412-0.227c-0.159-0.082-0.356-0.141-0.543-0.233c-0.186-0.096-0.403-0.158-0.626-0.224
			c-0.216-0.082-0.452-0.129-0.695-0.169c-0.235-0.068-0.493-0.063-0.747-0.089c-0.25-0.041-0.52,0.001-0.78-0.012
			c-0.264,0.022-0.53,0.036-0.794,0.072c-0.263,0.046-0.531,0.059-0.785,0.124c-0.515,0.09-0.998,0.223-1.429,0.319
			C153.447,176.761,152.824,176.917,152.824,176.917z"/>
	</g>
	<g>
		<path class="st26" d="M152.951,210.992c0,0-0.177,0.15-0.531,0.354c-0.353,0.222-0.877,0.451-1.53,0.703
			c-0.655,0.199-1.437,0.465-2.291,0.56c-0.426,0.063-0.869,0.118-1.321,0.163c-0.451,0.021-0.909,0.013-1.368,0.012
			c-0.458-0.019-0.919-0.004-1.365-0.064c-0.447-0.058-0.885-0.131-1.307-0.206c-0.422-0.074-0.827-0.158-1.209-0.243
			c-0.379-0.098-0.729-0.238-1.053-0.353c-1.296-0.464-2.098-0.925-2.098-0.925s0.946-0.131,2.272-0.1
			c0.33,0.009,0.688,0.018,1.066,0.028c0.379-0.009,0.776-0.013,1.184-0.005c0.408,0.009,0.828,0.021,1.252,0.051
			c0.425,0.019,0.856-0.001,1.287,0.008c0.431,0.016,0.862,0.03,1.287,0.045c0.422-0.014,0.839-0.014,1.245-0.006
			c0.407,0.011,0.801,0.024,1.171,0.006c0.372-0.008,0.729,0.002,1.062,0.012c0.65-0.035,1.222-0.006,1.609-0.027
			C152.713,211.003,152.951,210.992,152.951,210.992z"/>
	</g>
</g>
<g>
	<g>
		<g>
			<path class="st6" d="M89.038,157.486c0,2.762,2.247,5.011,5.012,5.011c2.762,0,5.011-2.249,5.011-5.011
				c0-2.763-2.249-5.011-5.011-5.011C91.287,152.475,89.038,154.724,89.038,157.486z M91.543,157.485
				c0-1.381,1.125-2.505,2.507-2.505c1.381,0,2.505,1.124,2.505,2.505c0,1.382-1.124,2.506-2.505,2.506
				C92.668,159.992,91.543,158.867,91.543,157.485z"/>
		</g>
	</g>
	<g>
		<g>
			<path class="st6" d="M74.021,139.261c0,4.143,3.37,7.514,7.513,7.514c4.144,0,7.514-3.371,7.514-7.514
				c0-4.143-3.37-7.515-7.514-7.515C77.391,131.746,74.021,135.118,74.021,139.261z M77.025,139.261
				c0-2.485,2.023-4.508,4.509-4.508s4.508,2.022,4.508,4.508c0,2.486-2.022,4.508-4.508,4.508S77.025,141.747,77.025,139.261z"/>
		</g>
	</g>
	<g>
		<g>
			<path class="st6" d="M2,89.648c0,15.074,12.263,27.338,27.337,27.338c0.843,0,1.689-0.039,2.528-0.117
				c3.79,10.883,14.167,18.341,25.821,18.341c10.926,0,20.89-6.632,25.156-16.618c8.248-1.803,14.332-9.259,14.332-17.808
				c0-7.906-5.153-14.882-12.516-17.311c0.244-1.297,0.366-2.62,0.366-3.951c0-11.724-9.538-21.262-21.262-21.262
				c-7.305,0-13.93,3.645-17.827,9.663c-4.751-3.635-10.556-5.612-16.598-5.612C14.263,62.312,2,74.575,2,89.648z M6.05,89.648
				c0-12.841,10.446-23.288,23.287-23.288c5.868,0,11.473,2.19,15.783,6.164c0.47,0.433,1.118,0.618,1.744,0.503
				c0.628-0.117,1.164-0.523,1.446-1.097c2.921-5.934,8.842-9.62,15.452-9.62c9.492,0,17.212,7.722,17.212,17.212
				c0,1.644-0.231,3.269-0.686,4.828c-0.159,0.543-0.083,1.127,0.209,1.612c0.292,0.484,0.772,0.825,1.326,0.939
				c6.548,1.348,11.3,7.187,11.3,13.883c0,6.958-5.179,12.984-12.046,14.017c-0.727,0.109-1.335,0.602-1.594,1.288
				c-3.399,9.014-12.16,15.07-21.798,15.07c-10.429,0-19.657-7.011-22.441-17.05c-0.276-0.991-1.25-1.617-2.266-1.458
				c-1.195,0.187-2.42,0.282-3.642,0.282C16.497,112.936,6.05,102.489,6.05,89.648z"/>
		</g>
	</g>
	<path class="st31" d="M82.999,83.774c0,0,3.337-19.293-14.361-22.34c-17.699-3.046-19.272,6.353-21.905,8.995
		c0,0-20.6-14.75-33.946,0.676c-13.346,15.426-9.141,27.758,1.015,37.476c10.155,9.72,17.699,6.818,18.424,6.674
		c0.725-0.146,8.56,20.602,28.578,17.698c0,0,15.669-4.062,20.746-16.538C81.548,116.415,109.584,105.958,82.999,83.774z"/>
	<circle class="st31" cx="94.05" cy="157.486" r="3.153"/>
	<circle class="st31" cx="81.534" cy="139.261" r="4.805"/>
	<g>
		<g>
			<path class="st20" d="M59.7,119.455c0-0.697-0.129-1.355-0.385-1.978c-0.256-0.623-0.623-1.163-1.099-1.621
				c-0.477-0.458-1.024-0.823-1.647-1.098c-0.623-0.275-1.281-0.412-1.978-0.412c-0.695,0-1.355,0.137-1.978,0.412
				c-0.622,0.275-1.162,0.641-1.621,1.098c-0.457,0.458-0.814,0.998-1.07,1.621c-0.257,0.623-0.386,1.281-0.386,1.978
				c0,0.696,0.129,1.355,0.386,1.977c0.256,0.623,0.613,1.163,1.07,1.621c0.459,0.458,0.999,0.824,1.621,1.099
				c0.623,0.274,1.283,0.412,1.978,0.412c0.696,0,1.355-0.138,1.978-0.412c0.623-0.275,1.172-0.641,1.647-1.099
				c0.477-0.458,0.843-0.998,1.099-1.621C59.571,120.809,59.7,120.151,59.7,119.455z M54.975,112.093h-0.439
				c-1.172-0.147-2.134-0.677-2.885-1.592c-0.751-0.916-1.072-1.96-0.961-3.132c0.219-2.014,0.722-3.964,1.51-5.851
				c0.788-1.886,1.805-3.561,3.049-5.026c0.404-0.513,0.843-0.979,1.319-1.401c0.476-0.421,0.952-0.833,1.429-1.235
				c1.208-1.026,2.133-1.941,2.774-2.748c0.64-0.806,0.961-1.794,0.961-2.965c0-1.026-0.21-1.869-0.632-2.528
				c-0.421-0.658-0.933-1.181-1.538-1.564c-0.604-0.385-1.236-0.66-1.896-0.825c-0.658-0.165-1.246-0.247-1.758-0.247h-0.109
				c-1.025,0-1.869,0.137-2.527,0.412c-0.66,0.275-1.219,0.66-1.676,1.153c-0.458,0.495-0.842,1.09-1.153,1.786
				c-0.312,0.695-0.632,1.447-0.96,2.253c-0.441,1.134-0.972,1.931-1.595,2.389c-0.622,0.458-1.244,0.724-1.868,0.797
				c-0.696,0.146-1.41,0.091-2.141-0.166c-0.733-0.293-1.318-0.713-1.759-1.263c-0.401-0.476-0.714-1.089-0.934-1.84
				c-0.219-0.75-0.146-1.675,0.22-2.774c0.22-0.696,0.604-1.694,1.155-2.994c0.548-1.301,1.382-2.573,2.499-3.818
				c1.117-1.247,2.554-2.326,4.313-3.242c1.758-0.916,3.955-1.354,6.592-1.317c1.758,0.036,3.489,0.356,5.191,0.96
				c1.703,0.604,3.232,1.492,4.586,2.665c1.356,1.172,2.455,2.609,3.296,4.312c0.843,1.703,1.264,3.654,1.264,5.852
				c0,1.611-0.22,3.039-0.659,4.284c-0.439,1.246-0.998,2.362-1.675,3.352c-0.677,0.988-1.41,1.849-2.197,2.582
				c-0.788,0.732-1.51,1.391-2.17,1.977c-0.367,0.33-0.714,0.632-1.044,0.907c-0.33,0.275-0.585,0.541-0.769,0.797
				c-0.66,0.806-1.218,1.749-1.676,2.829c-0.458,1.08-0.74,2.206-0.852,3.378c-0.109,1.135-0.576,2.061-1.4,2.774
				C57.034,111.736,56.073,112.093,54.975,112.093z"/>
		</g>
	</g>
</g>
</svg>
