<?xml version="1.0" encoding="utf-8"?>
<!-- Generator: Adobe Illustrator 16.0.0, SVG Export Plug-In . SVG Version: 6.00 Build 0)  -->
<!DOCTYPE svg PUBLIC "-//W3C//DTD SVG 1.1//EN" "http://www.w3.org/Graphics/SVG/1.1/DTD/svg11.dtd">
<svg version="1.1" id="Layer_1" xmlns="http://www.w3.org/2000/svg" xmlns:xlink="http://www.w3.org/1999/xlink" x="0px" y="0px"
	 width="500px" height="500px" viewBox="0 0 500 500" enable-background="new 0 0 500 500" xml:space="preserve">
<path fill="#FEE79D" d="M59.652,245.969c-2.742-2.742-19.471-20.621-23.994-32.137c-13.848-35.648,9.316-99.742,27.962-110.71
	c18.509-10.968,92.957-35.069,107.216-38.223c14.121-3.29,44.489-4.387,49.973,0c5.484,4.388,18.725,9.817,62.325,1.042
	c43.598-8.775,96.883,4.019,121.974,31.303c25.09,27.283,49.914,66.241,46.624,98.872c-3.289,32.769-12.065,34.962-6.582,55.665
	s-2.563,21.061,5.113,51.635s45.793,128.741-79.658,130.935c-125.451,2.194-181.117-9.871-245.417-10.421
	c-64.301-0.546-116.675-40.856-106.94-97.617c9.872-56.762,26.187-25.091,62.109-7.678c36.058,17.411,3.153-24.269-5.758-34.14
	C57.184,265.164,64.999,251.179,59.652,245.969z"/>
<g>
	<path fill="#F2F2F2" d="M37.503,450.156c0-0.607,51.384-4.251,54.3-3.645c2.915,0.607,10.082,2.55,42.273,6.194
		c32.19,3.645,71.184,0.244,74.099,0.244c2.916,0,76.286,0.122,93.656-2.552c17.372-2.672,6.439-9.474,65.962-3.887
		c59.524,5.588,83.696,0.851,98.272,2.916c14.577,2.063,34.377,5.83,13.728,17.37c-20.651,11.541-22.23,8.988-34.014,8.988
		c-11.781,0-84.547-1.215-108.962-3.036c-24.417-1.822-122.081,0-141.881,0c-19.801,0-55.029,3.644-73.493-0.608
		c-18.464-4.251-55.028-1.214-76.529-3.643c-21.501-2.431-43.366,9.11-30.611-4.252s23.08-15.792,23.08-15.792"/>
	
		<line fill="none" stroke="#010101" stroke-width="3.8656" stroke-miterlimit="10" x1="44.914" y1="458.78" x2="161.771" y2="458.78"/>
	
		<line fill="none" stroke="#010101" stroke-width="3.8656" stroke-miterlimit="10" x1="182.18" y1="458.78" x2="208.175" y2="458.78"/>
	
		<line fill="none" stroke="#010101" stroke-width="3.8656" stroke-miterlimit="10" x1="220.808" y1="458.78" x2="397.676" y2="458.78"/>
	
		<line fill="none" stroke="#010101" stroke-width="3.8656" stroke-miterlimit="10" x1="439.221" y1="458.78" x2="472.99" y2="458.78"/>
</g>
<path fill="#52C5D2" stroke="#010101" stroke-width="3.0958" stroke-miterlimit="10" d="M273.528,434.971"/>
<path fill="#52C5D2" stroke="#010101" stroke-width="3.0958" stroke-miterlimit="10" d="M228.948,434"/>
<g>
	<polygon fill="#F2F2F2" stroke="#010101" stroke-width="0.1987" stroke-miterlimit="10" points="174.552,56.579 107.631,72.705 
		124.563,79.558 125.972,93.266 	"/>
	<polygon fill="#D2D3D4" stroke="#010101" stroke-width="0.1987" stroke-miterlimit="10" points="124.563,79.558 125.972,93.266 
		174.552,56.579 	"/>
	<polygon fill="#F2F2F2" stroke="#010101" stroke-width="0.1987" stroke-miterlimit="10" points="132.827,82.986 125.972,93.266 
		174.552,56.579 	"/>
	<polygon fill="#F2F2F2" stroke="#010101" stroke-width="0.1987" stroke-miterlimit="10" points="174.552,56.579 133.028,82.986 
		149.96,89.839 	"/>
</g>
<g>
	<path fill="#F1F2F2" stroke="#000000" stroke-width="0.556" stroke-miterlimit="10" d="M421.061,224.854c4.108,0,11.684,0,15.642,0
		c7.362,3.75,18.672,18.862,21.147,27.522c4.69,16.403-1.444,20.356-8.671,24.429c-12.071,6.802-36.138,4.34-42.365-0.058
		c-12.348-8.71-9.55-17.605-7.079-24.371C402.817,243.931,413.511,228.192,421.061,224.854z"/>
	<path fill="#F1F2F2" stroke="#000000" stroke-width="0.556" stroke-miterlimit="10" d="M413.294,216.837
		c0,0,1.358,5.746,7.407,8.017h16.052c0,0,6.051-2.873,7.039-8.017C443.792,216.837,431.631,212.528,413.294,216.837z"/>
	<path fill="#F1F2F2" stroke="#000000" stroke-width="0.556" stroke-miterlimit="10" d="M418.293,211.277c0,0,11.979-4.587,20.499,0
		l-6.052,13.577h-8.272L418.293,211.277z"/>
	<g>
		<g>
			<path fill="#58595B" d="M438.116,224.184c-6.383,0-12.765,0-19.147,0c-0.865,0-0.865,1.341,0,1.341c6.383,0,12.765,0,19.147,0
				C438.981,225.524,438.981,224.184,438.116,224.184L438.116,224.184z"/>
		</g>
	</g>
	<g>
		<g>
			<path fill="#58595B" d="M411.572,243.02c1.141-6.487,4.131-13.625,9.635-17.519c0.726-0.513,0.032-1.719-0.701-1.2
				c-5.813,4.111-9.066,11.479-10.273,18.35C410.078,243.526,411.418,243.901,411.572,243.02L411.572,243.02z"/>
		</g>
	</g>
	<g>
		<g>
			<path fill="#58595B" d="M418.191,247.466c-0.494-6.29-1.638-17.249,3.156-22.074c0.633-0.637-0.351-1.62-0.982-0.983
				c-5.161,5.195-4.088,16.394-3.564,23.057C416.871,248.354,418.262,248.36,418.191,247.466L418.191,247.466z"/>
		</g>
	</g>
	<g>
		<g>
			<g>
				<path fill="#808285" d="M420.619,247.181c5.282,0,10.563,0,15.846,0c1.793,0,1.793-2.78,0-2.78c-5.282,0-10.563,0-15.846,0
					C418.826,244.401,418.826,247.181,420.619,247.181L420.619,247.181z"/>
			</g>
		</g>
		<g>
			<g>
				<path fill="#808285" d="M420.619,252.645c5.282,0,10.563,0,15.846,0c1.793,0,1.793-2.78,0-2.78c-5.282,0-10.563,0-15.846,0
					C418.826,249.865,418.826,252.645,420.619,252.645L420.619,252.645z"/>
			</g>
		</g>
		<g>
			<g>
				<path fill="#808285" d="M421.097,247.181c3.283-0.419,7.772,0.159,8.937,3.772c1.559,4.84-4.79,5.812-8.227,5.822
					c-1.793,0.005-1.793,2.785,0,2.779c5.027-0.015,12.173-1.921,11.114-8.313c-0.92-5.558-6.819-7.479-11.824-6.841
					C419.344,244.625,419.321,247.407,421.097,247.181L421.097,247.181z"/>
			</g>
		</g>
		<g>
			<g>
				<path fill="#808285" d="M433.502,269.465c-3.52-4.021-7.038-8.043-10.557-12.064c-1.184-1.352-3.142,0.623-1.967,1.967
					c3.52,4.021,7.038,8.042,10.557,12.063C432.719,272.782,434.677,270.808,433.502,269.465L433.502,269.465z"/>
			</g>
		</g>
	</g>
</g>
<polygon fill="#F1F2F2" stroke="#808285" stroke-width="0.419" stroke-miterlimit="10" points="434.738,394.505 434.738,398.952 
	441.347,402.798 434.738,406.402 434.738,409.887 367.442,409.887 367.442,394.505 "/>
<rect x="379.209" y="398.076" fill="#A7A9AC" width="53.765" height="1.532"/>
<rect x="379.209" y="400.802" fill="#A7A9AC" width="53.765" height="0.852"/>
<rect x="379.209" y="403.017" fill="#A7A9AC" width="53.765" height="0.851"/>
<rect x="379.209" y="404.975" fill="#A7A9AC" width="53.765" height="0.852"/>
<polygon fill="#A7A9AC" points="380.045,374.076 380.045,378.643 373.194,382.488 380.045,386.214 380.045,389.938 449.623,389.938 
	449.623,374.076 "/>
<rect x="369.344" y="398.021" fill="#A7A9AC" width="7.701" height="7.859"/>
<rect x="384.3" y="378.132" fill="#F1F2F2" width="53.765" height="1.532"/>
<rect x="384.3" y="380.857" fill="#F1F2F2" width="53.765" height="0.852"/>
<rect x="384.3" y="383.072" fill="#F1F2F2" width="53.765" height="0.851"/>
<rect x="384.3" y="385.03" fill="#F1F2F2" width="53.765" height="0.852"/>
<rect x="440.273" y="378.077" fill="#F1F2F2" width="7.701" height="7.859"/>
<path fill="#FFFFFF" stroke="#808285" stroke-width="0.9547" stroke-miterlimit="10" d="M384.603,421.575
	c0.837,0.926,1.188,3.852,0.08,5.224c0,0-3.273,4.519-6.122,4.935c-1.383,0.203-6.213,0.395-16.541-6.227
	c-4.936-3.166-12.863-11.346-16.042-17.1c-1.431-2.586-3.975-7.393-4.276-12.135c-0.272-4.275,4.783-7.281,4.783-7.281
	c1.363-0.819,3.166-1.405,4.24-0.713c0,0,6.57,4.09,6.149,9.18c-0.143,1.715-1.637,2.698-3.351,4.91
	c-2.22,2.861,10.355,16.266,16.357,17.861c2.071,0.551,3.797-3.613,5.908-3.64C379.773,416.088,384.603,421.575,384.603,421.575z"/>
<g>
	<g>
		<g>
			<g>
				<g>
					<polygon fill="#808285" points="192.935,65.488 192.704,63.726 187.867,64.396 188.14,66.152 					"/>
					<polygon fill="#808285" points="200.095,64.68 199.932,62.911 195.072,63.411 195.282,65.175 					"/>
					<polygon fill="#808285" points="207.277,64.156 207.188,62.381 202.312,62.7 202.452,64.472 					"/>
					<path fill="#808285" d="M214.474,63.949l-0.008-1.777c0,0-0.306-0.007-0.764,0.01c-0.458,0.012-1.069,0.028-1.68,0.044
						c-1.221,0.032-2.443,0.064-2.443,0.064l0.063,1.775c0,0,1.208-0.032,2.416-0.063c0.604-0.016,1.208-0.032,1.661-0.044
						C214.172,63.942,214.474,63.949,214.474,63.949z"/>
					<path fill="#808285" d="M221.668,64.104l0.078-1.775c0,0-1.22-0.093-2.443-0.089c-1.222-0.018-2.445-0.035-2.445-0.035
						l-0.02,1.777c0,0,1.208,0.017,2.416,0.034C220.463,64.012,221.668,64.104,221.668,64.104z"/>
					<path fill="#808285" d="M228.847,64.604l0.166-1.769c0,0-1.217-0.119-2.434-0.237c-1.221-0.068-2.441-0.137-2.441-0.137
						l-0.106,1.773c0,0,1.206,0.068,2.412,0.135C227.645,64.487,228.847,64.604,228.847,64.604z"/>
					<path fill="#808285" d="M235.99,65.452l0.253-1.759c0,0-1.211-0.168-2.421-0.337c-1.208-0.188-2.428-0.289-2.428-0.289
						l-0.194,1.767c0,0,1.204,0.098,2.398,0.285C234.793,65.285,235.99,65.452,235.99,65.452z"/>
				</g>
			</g>
			<g>
				<g>
					<polygon fill="#808285" points="243.088,66.64 243.426,64.895 238.614,64.026 238.332,65.78 					"/>
					<polygon fill="#808285" points="250.125,68.157 250.542,66.43 245.77,65.371 245.406,67.109 					"/>
					<path fill="#808285" d="M257.085,70.01l0.488-1.708c0,0-1.165-0.366-2.353-0.656c-1.183-0.307-2.365-0.614-2.365-0.614
						l-0.44,1.721c0,0,1.17,0.304,2.341,0.608C255.93,69.647,257.085,70.01,257.085,70.01z"/>
					<path fill="#808285" d="M263.974,72.13l0.551-1.689c0,0-1.158-0.382-2.317-0.763c-1.171-0.348-2.341-0.695-2.341-0.695
						l-0.51,1.702c0,0,1.159,0.344,2.318,0.688C262.824,71.751,263.974,72.13,263.974,72.13z"/>
					<path fill="#808285" d="M270.79,74.483l0.605-1.67c0,0-1.146-0.417-2.294-0.833c-0.57-0.214-1.15-0.406-1.585-0.548
						c-0.435-0.144-0.725-0.24-0.725-0.24l-0.57,1.683c0,0,0.287,0.095,0.719,0.238c0.431,0.141,1.006,0.331,1.572,0.544
						C269.651,74.07,270.79,74.483,270.79,74.483z"/>
					<path fill="#808285" d="M277.538,77.04l0.651-1.653c0,0-1.135-0.445-2.27-0.89c-1.132-0.455-2.279-0.868-2.279-0.869
						l-0.622,1.665c0,0,1.14,0.41,2.264,0.863C276.41,76.598,277.538,77.04,277.538,77.04z"/>
					<polygon fill="#808285" points="284.221,79.768 284.911,78.13 280.41,76.258 279.745,77.906 					"/>
				</g>
			</g>
		</g>
	</g>
</g>
<g>
	<g>
		<g>
			<g>
				<g>
					<polygon fill="#808285" points="434.052,293.324 435.822,293.178 435.398,289.252 433.64,289.501 					"/>
					<path fill="#808285" d="M434.286,299.049l1.777-0.003c0,0,0.004-0.246,0.012-0.616c0.001-0.369-0.032-0.862-0.05-1.354
						c-0.042-0.986-0.084-1.972-0.084-1.972l-1.774,0.1c0,0,0.041,0.961,0.083,1.922c0.017,0.48,0.05,0.961,0.048,1.322
						C434.291,298.808,434.286,299.049,434.286,299.049z"/>
					<path fill="#808285" d="M434.061,304.778l1.772,0.131c0,0,0.077-0.981,0.153-1.964c0.021-0.985,0.04-1.971,0.04-1.971
						l-1.776-0.042c0,0-0.019,0.962-0.038,1.925C434.137,303.818,434.061,304.778,434.061,304.778z"/>
					<path fill="#808285" d="M433.438,310.484l1.758,0.255c0,0,0.133-0.976,0.266-1.951c0.062-0.488,0.141-0.974,0.173-1.342
						c0.028-0.368,0.048-0.613,0.048-0.613l-1.769-0.173c0,0-0.019,0.239-0.047,0.6c-0.031,0.36-0.108,0.836-0.17,1.314
						C433.566,309.529,433.438,310.484,433.438,310.484z"/>
					<polygon fill="#808285" points="432.442,316.143 434.181,316.511 434.92,312.646 433.168,312.353 					"/>
					<path fill="#808285" d="M431.09,321.732l1.713,0.471c0,0,0.076-0.233,0.159-0.593c0.088-0.358,0.205-0.836,0.322-1.313
						c0.234-0.954,0.469-1.909,0.469-1.909l-1.73-0.402c0,0-0.23,0.938-0.46,1.875c-0.115,0.469-0.23,0.938-0.316,1.289
						C431.165,321.502,431.09,321.732,431.09,321.732z"/>
					<path fill="#808285" d="M429.396,327.229l1.685,0.565c0,0,0.348-0.919,0.61-1.866c0.281-0.941,0.563-1.883,0.563-1.883
						l-1.704-0.503c0,0-0.277,0.926-0.553,1.851C429.738,326.325,429.396,327.229,429.396,327.229z"/>
				</g>
			</g>
			<g>
				<g>
					<path fill="#808285" d="M427.412,332.636l1.653,0.652c0,0,0.363-0.912,0.726-1.824c0.326-0.927,0.651-1.854,0.651-1.854
						l-1.675-0.595c0,0-0.319,0.912-0.64,1.824C427.771,331.737,427.412,332.636,427.412,332.636z"/>
					<path fill="#808285" d="M425.163,337.938l1.619,0.732c0,0,0.407-0.894,0.813-1.787c0.4-0.896,0.751-1.813,0.751-1.813
						l-1.642-0.68c0,0-0.346,0.904-0.74,1.787C425.564,337.058,425.163,337.938,425.163,337.938z"/>
					<path fill="#808285" d="M422.667,343.132l1.584,0.806c0,0,0.443-0.875,0.888-1.75c0.459-0.867,0.848-1.77,0.848-1.77
						l-1.607-0.757c0,0-0.382,0.889-0.836,1.744C423.104,342.269,422.667,343.132,422.667,343.132z"/>
					<path fill="#808285" d="M419.94,348.211l1.547,0.874c0,0,0.479-0.855,0.958-1.711c0.239-0.428,0.479-0.855,0.658-1.177
						c0.166-0.328,0.277-0.547,0.277-0.547l-1.571-0.829c0,0-0.109,0.216-0.273,0.54c-0.178,0.316-0.414,0.738-0.649,1.161
						C420.413,347.367,419.94,348.211,419.94,348.211z"/>
					<path fill="#808285" d="M416.999,353.172l1.51,0.938c0,0,0.513-0.836,1.026-1.672c0.256-0.418,0.513-0.835,0.705-1.148
						c0.196-0.312,0.309-0.529,0.309-0.529l-1.534-0.896c0,0-0.111,0.215-0.306,0.522c-0.189,0.31-0.443,0.722-0.696,1.135
						C417.506,352.347,416.999,353.172,416.999,353.172z"/>
					<polygon fill="#808285" points="413.858,358.012 415.33,359.008 417.505,355.745 416.008,354.788 					"/>
					<polygon fill="#808285" points="410.532,362.725 411.965,363.776 414.264,360.603 412.806,359.587 					"/>
				</g>
			</g>
		</g>
	</g>
</g>
<g>
	<g>
		<g>
			<g>
				<g>
					<polygon fill="#808285" points="395.221,126.34 396.402,125.014 393.328,122.389 392.212,123.772 					"/>
					<path fill="#808285" d="M399.478,130.416l1.27-1.243c0,0-0.686-0.741-1.431-1.424c-0.732-0.696-1.464-1.392-1.464-1.392
						l-1.212,1.299c0,0,0.717,0.682,1.434,1.364C398.806,129.688,399.478,130.416,399.478,130.416z"/>
					<path fill="#808285" d="M403.459,134.767l1.345-1.161c0,0-0.656-0.766-1.313-1.532c-0.692-0.734-1.385-1.468-1.385-1.468
						l-1.295,1.216c0,0,0.68,0.72,1.359,1.44C402.814,134.015,403.459,134.767,403.459,134.767z"/>
					<path fill="#808285" d="M407.182,139.347l1.411-1.08c0,0-0.618-0.796-1.236-1.593c-0.312-0.396-0.613-0.801-0.856-1.09
						c-0.246-0.287-0.41-0.479-0.41-0.479l-1.367,1.134c0,0,0.161,0.188,0.402,0.47c0.239,0.285,0.535,0.683,0.841,1.072
						C406.574,138.564,407.182,139.347,407.182,139.347z"/>
					<polygon fill="#808285" points="410.643,144.13 412.112,143.132 409.794,139.833 408.362,140.885 					"/>
					<polygon fill="#808285" points="413.837,149.099 415.359,148.183 413.201,144.778 411.713,145.75 					"/>
					<path fill="#808285" d="M416.734,154.247l1.568-0.834c0,0-0.452-0.9-0.967-1.767c-0.499-0.875-0.999-1.75-0.999-1.75
						l-1.538,0.89c0,0,0.492,0.861,0.983,1.722C416.289,153.36,416.733,154.247,416.734,154.247z"/>
				</g>
			</g>
			<g>
				<g>
					<path fill="#808285" d="M419.362,159.54l1.61-0.751c0,0-0.104-0.229-0.26-0.573c-0.156-0.344-0.358-0.806-0.596-1.25
						c-0.458-0.897-0.917-1.795-0.917-1.795l-1.583,0.807c0,0,0.451,0.883,0.902,1.767c0.234,0.438,0.434,0.892,0.587,1.231
						S419.362,159.54,419.362,159.54z"/>
					<path fill="#808285" d="M421.713,164.96l1.647-0.667c0,0-0.372-0.936-0.744-1.873c-0.415-0.918-0.83-1.836-0.83-1.836
						l-1.623,0.723c0,0,0.409,0.904,0.817,1.808C421.347,164.038,421.713,164.96,421.713,164.96z"/>
					<path fill="#808285" d="M423.782,170.493l1.68-0.58c0,0-0.326-0.953-0.653-1.906c-0.154-0.48-0.351-0.944-0.488-1.296
						c-0.14-0.351-0.232-0.585-0.232-0.585l-1.658,0.638c0,0,0.092,0.23,0.229,0.576c0.136,0.347,0.329,0.804,0.48,1.276
						C423.461,169.555,423.782,170.493,423.782,170.493z"/>
					<path fill="#808285" d="M425.564,176.126l1.708-0.492c0,0-0.281-0.968-0.562-1.935c-0.261-0.974-0.608-1.92-0.608-1.92
						l-1.689,0.551c0,0,0.343,0.931,0.6,1.89C425.289,175.174,425.564,176.126,425.564,176.126z"/>
					<path fill="#808285" d="M427.052,181.844l1.731-0.402c0,0-0.232-0.98-0.465-1.961c-0.117-0.49-0.234-0.98-0.322-1.348
						c-0.105-0.363-0.176-0.604-0.176-0.604l-1.716,0.462c0,0,0.069,0.238,0.173,0.596c0.087,0.362,0.202,0.844,0.317,1.327
						C426.823,180.879,427.052,181.844,427.052,181.844z"/>
					<path fill="#808285" d="M428.239,187.632l1.749-0.311c0,0-0.183-0.991-0.365-1.981c-0.092-0.496-0.184-0.991-0.252-1.362
						c-0.063-0.373-0.133-0.615-0.134-0.615l-1.737,0.373c0.001,0,0.069,0.239,0.132,0.605c0.067,0.366,0.157,0.854,0.247,1.341
						C428.06,186.657,428.239,187.632,428.239,187.632z"/>
					<polygon fill="#808285" points="429.12,193.472 430.883,193.254 430.347,189.26 428.592,189.541 					"/>
				</g>
			</g>
		</g>
	</g>
</g>
<g>
	<g>
		<path fill="#E6E7E8" d="M350.899,60.581l-11.158-10.388c-1.318-1.226-3.36-1.226-4.679,0l-11.156,10.388H350.899z"/>
	</g>
	<polygon fill="#E6E7E8" points="308.637,87.789 308.502,87.686 308.502,74.922 300.963,81.941 300.963,81.942 	"/>
	<polygon fill="#E6E7E8" points="366.303,74.922 366.303,87.686 366.041,87.885 366.043,87.885 373.842,81.942 373.842,81.941 	"/>
	<polygon fill="#E6E7E8" points="308.502,74.922 323.906,60.581 350.899,60.581 366.303,74.922 366.303,87.686 347.455,102.047 
		327.351,102.047 308.502,87.687 	"/>
	<circle fill="#FFFFFF" stroke="#808285" stroke-width="0.3081" stroke-miterlimit="10" cx="337.403" cy="81.314" r="26.295"/>
	<polygon fill="#D1D3D4" points="373.842,122.151 373.842,81.942 347.455,102.047 	"/>
	<polygon fill="#D1D3D4" points="300.963,122.151 300.963,81.942 327.351,102.047 	"/>
	<polygon fill="#E6E7E8" points="300.963,122.151 301.125,122.151 373.266,122.151 373.68,122.151 373.842,122.151 347.455,102.047 
		327.351,102.047 	"/>
	<path fill="none" stroke="#808285" stroke-width="1.8488" stroke-miterlimit="10" d="M327.887,76.894c0,0,0,5.999,0,8.012
		c0.002,3.121,3.342,8.551,9.219,8.551h-0.022c6.601,0,9.218-5.43,9.22-8.551c0-2.013,0-8.012,0-8.012"/>
	<path fill="#808285" d="M343.438,82.773c0,3.518-2.758,6.369-6.162,6.369h-0.385c-3.404,0-6.163-2.851-6.163-6.369v-12.58
		c0-3.518,2.759-6.369,6.163-6.369h0.385c3.404,0,6.162,2.852,6.162,6.369V82.773z"/>
	<polyline fill="none" stroke="#808285" stroke-width="1.8796" stroke-miterlimit="10" points="337.105,93.457 337.105,99.312 
		342.631,99.312 331.486,99.312 	"/>
</g>
<g>
	<path fill="#52C5D2" stroke="#010101" stroke-width="3.4941" stroke-miterlimit="10" d="M279.922,383.128"/>
	<path fill="#52C5D2" stroke="#010101" stroke-width="3.4941" stroke-miterlimit="10" d="M229.605,384.363"/>
	<path fill="#E6E7E8" stroke="#414042" stroke-miterlimit="10" d="M368.917,194.286l1.422,177.003
		C370.339,371.289,393.417,216.775,368.917,194.286z"/>
	<path fill="#DDE5DF" stroke="#414042" stroke-width="1.2884" stroke-miterlimit="10" d="M370.361,370.676
		c0,5.718-5.407,10.384-12.138,10.384l-149.678-87.967c-5.873-4.25-11.414-6.397-11.414-12.115V174.849
		c0-5.717,5.405-10.381,12.138-10.381l148.985,25.065c6.729,0,12.137,4.666,12.137,10.382L370.361,370.676z"/>
	<polygon fill="#FFFFFF" points="203.256,180.511 364.269,218.72 363.25,368.266 203.256,281.141 	"/>
	<ellipse fill="#FDB716" cx="221.978" cy="199.942" rx="9.742" ry="13.284"/>
	<polygon fill="#E0E3E8" points="243.803,216.51 355.665,246.844 355.665,333.51 243.953,280.847 	"/>
	
		<line fill="none" stroke="#E7E7E7" stroke-width="3.8652" stroke-miterlimit="10" x1="207.369" y1="238.039" x2="231.826" y2="246.844"/>
	
		<line fill="none" stroke="#010101" stroke-width="3.8652" stroke-miterlimit="10" x1="207.369" y1="223.844" x2="232.428" y2="230.01"/>
	
		<line fill="none" stroke="#E7E7E7" stroke-width="3.8652" stroke-miterlimit="10" x1="207.369" y1="250.988" x2="231.826" y2="261.844"/>
	
		<line fill="none" stroke="#E7E7E7" stroke-width="3.8652" stroke-miterlimit="10" x1="207.369" y1="261.084" x2="232.428" y2="274.51"/>
</g>
<g>
	<g>
		<path fill="#52C5D2" stroke="#010101" stroke-miterlimit="10" d="M148.063,409.239l-34.792,0.923l-9.287-39.066
			c-0.371-36.608,35.783-49.375,35.783-49.375l0.374-17.841l16.097,0.767"/>
		<path fill="#52C5D2" stroke="#010101" stroke-miterlimit="10" d="M155.99,303.88l0.369,17.841c0,0,36.033,12.767,35.786,49.375
			l-9.163,38.296h-35.043"/>
	</g>
	<polygon fill="#FFFFFF" stroke="#000000" stroke-width="0.9218" stroke-miterlimit="10" points="132.923,361.473 135.801,411.831 
		159.941,411.831 159.941,361.473 	"/>
	<path fill="#2799CC" stroke="#010101" stroke-width="0.9478" stroke-miterlimit="10" d="M129.266,364.662
		c0,0,13.392-18.577,19.498-18.366c5.512,0.106,15.253,17.428,15.253,17.428L129.266,364.662z"/>
	<path fill="#FFFFFF" d="M140.54,304.606l-0.397,18.341c0,0,8.491-3.235,15.918,0l-0.468-17.798
		C155.47,305.149,148.561,306.111,140.54,304.606z"/>
	<path fill="#FFFFFF" stroke="#010101" stroke-miterlimit="10" d="M111.09,232.182c0,0-1.821,39.068-0.391,50.23
		c1.427,11.168,17.91,31.281,39.845,30.5c21.935-0.775,40.496-17.906,40.496-33.483c0-2.073,7.241-2.229,7.253-4.59
		c0.016-3.329-7.189-8.963-7.158-12.448c0.116-12.6,0.298-24.629,0.298-24.629s-17.135-1.816-17.916-22.712
		C173.651,215.05,149.766,239.582,111.09,232.182z"/>
	<path fill="#F7AC35" stroke="#010101" stroke-miterlimit="10" d="M156.135,230.388c24.256,2.667,21.426,7.488,34.618,8.152
		c7.99-0.425,11.312-8.864,9.261-14.97c-2.946-8.76-6.54-8.184-12.531-11.666c0,0,17.522-6.502,14.071-27.747
		c0,0,0.796,9.961-55.628,12.878c0,0-34.253-1.061-31.866,18.719c0,0-11.279,2.658-10.22,10.489c0.93,7.302,1.002,36.91,6.31,49.257
		C113.025,285.125,118.694,229.461,156.135,230.388z"/>
	<g>
		<path fill="#010101" d="M154.222,249.931c0,0,0.196-0.194,0.58-0.475c0.38-0.286,0.947-0.655,1.667-1.027
			c0.362-0.177,0.754-0.382,1.188-0.543c0.433-0.165,0.887-0.36,1.38-0.482c0.487-0.145,0.997-0.285,1.526-0.377
			c0.523-0.123,1.076-0.151,1.62-0.218c0.549-0.032,1.105-0.033,1.648-0.018c0.547,0.051,1.082,0.106,1.596,0.211
			c0.513,0.121,1.007,0.217,1.455,0.408c0.449,0.182,0.872,0.337,1.232,0.557c0.362,0.216,0.678,0.433,0.952,0.623
			c0.273,0.192,0.468,0.431,0.641,0.593c0.337,0.343,0.503,0.551,0.503,0.551s-0.278-0.064-0.719-0.198
			c-0.224-0.061-0.476-0.16-0.779-0.232c-0.311-0.06-0.654-0.124-1.011-0.217c-0.362-0.079-0.777-0.089-1.184-0.168
			c-0.41-0.074-0.869-0.038-1.315-0.1c-0.453-0.039-0.933,0.019-1.408-0.012c-0.482,0.033-0.971,0.036-1.461,0.075
			c-0.491,0.051-0.984,0.065-1.47,0.136c-0.486,0.06-0.971,0.09-1.437,0.17c-0.946,0.136-1.83,0.262-2.587,0.37
			c-0.763,0.129-1.419,0.21-1.88,0.278C154.49,249.896,154.222,249.931,154.222,249.931z"/>
	</g>
	<g>
		<path fill="#010101" d="M181.517,249.931c0,0,0.401-0.634,1.282-1.282c0.44-0.32,0.99-0.656,1.639-0.908
			c0.319-0.14,0.671-0.232,1.03-0.32c0.36-0.089,0.744-0.12,1.123-0.157c0.387,0.021,0.772-0.022,1.151,0.071
			c0.379,0.061,0.748,0.141,1.085,0.293c0.169,0.069,0.337,0.131,0.494,0.205c0.147,0.096,0.291,0.188,0.431,0.279
			c0.136,0.091,0.268,0.18,0.396,0.266c0.118,0.1,0.217,0.215,0.318,0.313c0.197,0.203,0.377,0.384,0.504,0.571
			c0.125,0.19,0.218,0.366,0.295,0.506c0.15,0.283,0.218,0.448,0.218,0.448s-0.176-0.078-0.451-0.22
			c-0.136-0.072-0.301-0.155-0.473-0.261c-0.182-0.094-0.409-0.162-0.624-0.268c-0.214-0.111-0.464-0.183-0.72-0.257
			c-0.125-0.04-0.254-0.08-0.386-0.121c-0.14-0.015-0.275-0.046-0.415-0.069c-0.271-0.071-0.564-0.081-0.856-0.107
			c-0.288-0.047-0.597,0.002-0.896-0.014c-1.211,0.06-2.473,0.35-3.456,0.592C182.233,249.751,181.517,249.931,181.517,249.931z"/>
	</g>
	<g>
		<path fill="#010101" d="M181.664,289.079c0,0-0.203,0.176-0.61,0.406c-0.406,0.255-1.008,0.518-1.758,0.808
			c-0.377,0.119-0.789,0.249-1.231,0.357c-0.441,0.127-0.91,0.228-1.401,0.279c-0.49,0.062-0.998,0.147-1.517,0.193
			c-0.518,0.024-1.044,0.015-1.572,0.014c-0.526-0.021-1.055-0.004-1.568-0.074c-0.514-0.061-1.015-0.166-1.5-0.243
			c-0.486-0.073-0.95-0.183-1.389-0.279c-0.437-0.105-0.839-0.267-1.21-0.398c-1.488-0.537-2.411-1.063-2.411-1.063
			s1.085-0.146,2.611-0.114c0.383,0,0.792,0.024,1.225,0.038c0.435-0.009,0.893-0.025,1.36-0.005
			c0.468,0.019,0.952,0.012,1.439,0.052c0.489,0.021,0.984-0.001,1.479,0.009c0.495,0.018,0.991,0.035,1.478,0.052
			c0.485-0.021,0.965,0,1.431-0.001c0.466,0.001,0.92,0.031,1.346,0.008c0.427-0.017,0.837-0.005,1.219,0.006
			c0.747-0.039,1.404-0.006,1.849-0.031C181.398,289.084,181.664,289.079,181.664,289.079z"/>
	</g>
</g>
<g>
	<g>
		<g>
			<path fill="#808285" d="M108.235,227.607c0,3.174,2.582,5.757,5.757,5.757c3.174,0,5.757-2.583,5.757-5.757
				c0-3.175-2.583-5.758-5.757-5.758S108.235,224.433,108.235,227.607z M111.113,227.606c0-1.587,1.292-2.878,2.879-2.878
				s2.879,1.292,2.879,2.878c0,1.587-1.292,2.879-2.879,2.879S111.113,229.194,111.113,227.606z"/>
		</g>
	</g>
	<g>
		<g>
			<path fill="#808285" d="M90.981,206.668c0,4.76,3.872,8.633,8.632,8.633c4.761,0,8.633-3.873,8.633-8.633
				s-3.872-8.633-8.633-8.633C94.853,198.035,90.981,201.908,90.981,206.668z M94.433,206.668c0-2.855,2.324-5.179,5.18-5.179
				c2.856,0,5.18,2.323,5.18,5.179c0,2.857-2.323,5.18-5.18,5.18C96.757,211.848,94.433,209.525,94.433,206.668z"/>
		</g>
	</g>
	<g>
		<g>
			<path fill="#808285" d="M8.238,149.67c0,17.318,14.09,31.407,31.407,31.407c0.969,0,1.94-0.044,2.904-0.133
				c4.354,12.503,16.276,21.071,29.666,21.071c12.553,0,24-7.619,28.9-19.092c9.477-2.072,16.466-10.637,16.466-20.459
				c0-9.083-5.921-17.098-14.38-19.889c0.28-1.49,0.421-3.01,0.421-4.539c0-13.469-10.958-24.428-24.428-24.428
				c-8.393,0-16.004,4.188-20.481,11.102c-5.458-4.177-12.127-6.448-19.068-6.448C22.328,118.263,8.238,132.352,8.238,149.67z
				 M12.891,149.67c0-14.753,12.002-26.755,26.754-26.755c6.741,0,13.181,2.516,18.133,7.082c0.54,0.497,1.284,0.71,2.004,0.577
				c0.721-0.135,1.337-0.602,1.661-1.26c3.356-6.817,10.158-11.053,17.752-11.053c10.904,0,19.775,8.871,19.775,19.775
				c0,1.889-0.266,3.755-0.788,5.547c-0.182,0.624-0.095,1.295,0.24,1.852c0.336,0.557,0.888,0.948,1.524,1.079
				c7.522,1.548,12.982,8.257,12.982,15.95c0,7.994-5.95,14.917-13.84,16.104c-0.834,0.125-1.534,0.691-1.831,1.479
				c-3.906,10.356-13.971,17.314-25.043,17.314c-11.982,0-22.585-8.054-25.783-19.587c-0.316-1.139-1.437-1.859-2.603-1.676
				c-1.373,0.215-2.781,0.324-4.185,0.324C24.893,176.424,12.891,164.422,12.891,149.67z"/>
		</g>
	</g>
	<path fill="#A7A9AC" d="M101.296,142.921c0,0,3.834-22.167-16.5-25.667s-22.142,7.298-25.167,10.333c0,0-23.667-16.946-39,0.777
		s-10.501,31.89,1.166,43.057s20.334,7.833,21.167,7.667s9.834,23.67,32.833,20.333c0,0,18.001-4.667,23.834-19
		C99.629,180.421,131.839,168.408,101.296,142.921z"/>
	<circle fill="#A7A9AC" cx="113.992" cy="227.607" r="3.622"/>
	<circle fill="#A7A9AC" cx="99.613" cy="206.668" r="5.52"/>
	<g>
		<g>
			<path fill="#FFFFFF" d="M74.528,183.913c0-0.799-0.148-1.557-0.442-2.271c-0.294-0.716-0.716-1.336-1.262-1.862
				c-0.548-0.526-1.179-0.946-1.894-1.262c-0.716-0.316-1.473-0.474-2.272-0.474c-0.799,0-1.557,0.157-2.271,0.474
				c-0.716,0.315-1.336,0.736-1.862,1.262c-0.525,0.526-0.937,1.146-1.23,1.862c-0.295,0.715-0.442,1.473-0.442,2.271
				c0,0.8,0.147,1.558,0.442,2.272c0.294,0.715,0.705,1.336,1.23,1.861c0.526,0.526,1.146,0.947,1.862,1.263
				c0.715,0.315,1.473,0.473,2.271,0.473c0.8,0,1.557-0.157,2.272-0.473c0.715-0.315,1.347-0.736,1.894-1.263
				c0.547-0.525,0.968-1.146,1.262-1.861C74.38,185.47,74.528,184.713,74.528,183.913z M69.1,175.456h-0.505
				c-1.347-0.168-2.451-0.778-3.313-1.83c-0.863-1.052-1.231-2.251-1.104-3.598c0.252-2.314,0.83-4.555,1.735-6.722
				c0.904-2.167,2.072-4.092,3.503-5.775c0.463-0.589,0.968-1.125,1.515-1.609s1.094-0.957,1.641-1.42
				c1.389-1.178,2.451-2.23,3.188-3.156c0.735-0.926,1.104-2.062,1.104-3.408c0-1.178-0.242-2.146-0.727-2.903
				c-0.483-0.757-1.072-1.357-1.767-1.798c-0.694-0.442-1.42-0.757-2.178-0.947c-0.757-0.189-1.431-0.284-2.02-0.284h-0.126
				c-1.179,0-2.146,0.158-2.903,0.474c-0.758,0.315-1.399,0.757-1.925,1.325c-0.526,0.568-0.968,1.251-1.325,2.051
				c-0.358,0.799-0.727,1.662-1.104,2.587c-0.505,1.304-1.115,2.22-1.831,2.746c-0.715,0.526-1.43,0.831-2.146,0.915
				c-0.8,0.168-1.62,0.105-2.461-0.189c-0.842-0.336-1.515-0.82-2.021-1.452c-0.462-0.547-0.82-1.251-1.072-2.114
				c-0.253-0.862-0.169-1.925,0.252-3.187c0.253-0.799,0.694-1.946,1.326-3.44c0.631-1.494,1.588-2.956,2.871-4.386
				s2.935-2.672,4.954-3.724c2.021-1.052,4.545-1.557,7.574-1.515c2.02,0.042,4.008,0.41,5.964,1.104s3.713,1.714,5.27,3.061
				c1.558,1.346,2.819,2.998,3.787,4.954s1.451,4.197,1.451,6.722c0,1.852-0.252,3.492-0.757,4.923s-1.146,2.714-1.925,3.85
				c-0.778,1.136-1.62,2.125-2.524,2.966c-0.905,0.841-1.735,1.599-2.493,2.272c-0.421,0.379-0.82,0.726-1.199,1.042
				c-0.379,0.316-0.673,0.621-0.884,0.915c-0.757,0.926-1.398,2.009-1.925,3.25s-0.852,2.535-0.979,3.882
				c-0.126,1.304-0.662,2.367-1.608,3.187C71.466,175.046,70.362,175.456,69.1,175.456z"/>
		</g>
	</g>
</g>
</svg>
