<?xml version="1.0" encoding="utf-8"?>
<!-- Generator: Adobe Illustrator 16.0.0, SVG Export Plug-In . SVG Version: 6.00 Build 0)  -->
<!DOCTYPE svg PUBLIC "-//W3C//DTD SVG 1.1//EN" "http://www.w3.org/Graphics/SVG/1.1/DTD/svg11.dtd">
<svg version="1.1" id="Layer_1" xmlns="http://www.w3.org/2000/svg" xmlns:xlink="http://www.w3.org/1999/xlink" x="0px" y="0px"
	 width="20px" height="20px" viewBox="0 0 20 20" style="enable-background:new 0 0 20 20;" xml:space="preserve">
<style type="text/css">
<![CDATA[
	.st0{fill:none;stroke:#FFFFFF;stroke-width:0.5978;stroke-miterlimit:10;}
	.st1{fill:#ED1C24;stroke:#FFFFFF;stroke-width:0.5978;stroke-miterlimit:10;}
]]>
</style>
<path class="st0" d="M9.768,0.688c0,0-1.715,0.373-0.261,2.386c1.454,2.014-1.603,4.177-2.535,1.939
	C6.039,2.775,6.934,6.765,7.195,8.406c0.261,1.64-0.522,2.834-2.014,1.417C3.69,8.406,5.463,13.92,5.667,14.26
	c0.18,0.301,2.462,4.945,8.016,1.082c1.053-0.732,2.573-2.125,1.156-4.998c0,0-1.864,2.164-2.051-0.298
	c-0.187-2.46,2.461-2.014,0.521-4.064c0,0-0.634,2.965-1.566,1.119c-0.406-0.808,0.373-2.498-0.036-3.617
	C11.296,2.365,9.283,2.552,9.768,0.688z"/>
<line class="st1" x1="5.499" y1="17.633" x2="14.447" y2="17.633"/>
<line class="st1" x1="3.289" y1="19.313" x2="16.712" y2="19.313"/>
</svg>
