<?xml version="1.0" encoding="utf-8"?>
<!-- Generator: Adobe Illustrator 16.0.0, SVG Export Plug-In . SVG Version: 6.00 Build 0)  -->
<!DOCTYPE svg PUBLIC "-//W3C//DTD SVG 1.1//EN" "http://www.w3.org/Graphics/SVG/1.1/DTD/svg11.dtd">
<svg version="1.1" id="Layer_1" xmlns="http://www.w3.org/2000/svg" xmlns:xlink="http://www.w3.org/1999/xlink" x="0px" y="0px"
	 width="20px" height="20px" viewBox="0 0 20 20" style="enable-background:new 0 0 20 20;" xml:space="preserve">
<style type="text/css">
<![CDATA[
	.st0{fill:none;stroke:#FFFFFF;stroke-width:0.6141;stroke-miterlimit:10;}
	.st1{fill:none;stroke:#FFFFFF;stroke-width:0.2047;stroke-miterlimit:10;}
]]>
</style>
<path class="st0" d="M6.875,3.192V2.162c0-0.307,0.249-0.556,0.556-0.556h11.302c0.307,0,0.556,0.249,0.556,0.556v6.716
	c0,0.307-0.249,0.556-0.556,0.556h-0.307"/>
<path class="st0" d="M18.426,10.706c0,0.318-0.257,0.574-0.574,0.574h-7.177l-3.015,2.178v-2.178H6.176
	c-0.317,0-0.574-0.256-0.574-0.574V3.767c0-0.317,0.257-0.574,0.574-0.574h11.676c0.317,0,0.574,0.257,0.574,0.574V10.706z"/>
<line class="st1" x1="7.887" y1="5.15" x2="16.73" y2="5.15"/>
<line class="st1" x1="7.887" y1="6.658" x2="16.73" y2="6.658"/>
<line class="st1" x1="7.887" y1="8.437" x2="16.73" y2="8.437"/>
<path class="st0" d="M10.476,16.184c0.19,0.211,0.271,0.877,0.019,1.189c0,0-0.745,1.027-1.393,1.121
	c-0.315,0.047-1.414,0.092-3.764-1.416c-1.123-0.721-2.927-2.58-3.65-3.891c-0.325-0.588-0.904-1.682-0.973-2.76
	C0.652,9.455,1.803,8.77,1.803,8.77c0.31-0.187,0.721-0.32,0.965-0.162c0,0,1.495,0.93,1.399,2.088
	c-0.032,0.389-0.373,0.614-0.762,1.116c-0.505,0.652,2.356,3.701,3.722,4.064c0.471,0.127,0.864-0.822,1.344-0.826
	C9.377,14.936,10.476,16.184,10.476,16.184z"/>
</svg>
